# xmcd CD database file
#
# Track frame offsets:
#	150
#	22270
#	38569
#	54948
#	72922
#	89513
#	110790
#	139628
#	157559
#	175398
#	193237
#	212567
#	229853
#	250200
#	276032
#	290125
#	309233
#
# Disc length: 4352 seconds
#
# Revision: 0
# Processed by: cddbd v1.5.1PL0 Copyright (c) Steve Scherf et al.
# Submitted via: Feurio! 1.67 - http://www.feurio.com
#
DISCID=f410fe11
DTITLE=Various Artist - SLOW MOTION III
DYEAR=1900
DGENRE=Blues
TTITLE0=4 NON BLONDES - WHAT'S UP
TTITLE1=LEO SAYER - MORE THAN I CAN SAY
TTITLE2=MORRIS ALBERT - FEELINGS
TTITLE3=RICHARD SANDERSON - REALITY
TTITLE4=LUCKY - BERNIE PAUL
TTITLE5=PAUL MCCARTNEY - MULL OF KINTYRE
TTITLE6=MICHAEL JACKSON - HEAL THE WORLD
TTITLE7=MACY GRAY - I TRY
TTITLE8=ROD STEWART - HAVE I TOLD YOU LATELY
TTITLE9=PHD - I WONT LET YOU DOWN
TTITLE10=ROBBIE WILLIAMS - SHE'S THE ONE
TTITLE11=NAZARETH - LOVE HURTS
TTITLE12=THE ROLLING STONES - ANGIE
TTITLE13=ZUCCHERO FORNACIARI - DIAMANTE
TTITLE14=CHRIS DE BURGH - THE LADY IN RED
TTITLE15=ART GARFUNKEL - BRIGHT EYES
TTITLE16=ABBA - THANK YOU FOR THE MUSIC
EXTD=
EXTT0=
EXTT1=
EXTT2=
EXTT3=
EXTT4=
EXTT5=
EXTT6=
EXTT7=
EXTT8=
EXTT9=
EXTT10=
EXTT11=
EXTT12=
EXTT13=
EXTT14=
EXTT15=
EXTT16=
PLAYORDER=
